<svg class="img-fluid" id="outputsvg" xmlns="http://www.w3.org/2000/svg" style="transform: none; transform-origin: 50% 50%; cursor: move; max-height: 345.04px;" width="1536" height="1536" viewBox="0 0 15360 15360">
  <g id="l3TFZMeP4tSXgViQIASbp1q" fill="rgb(0,0,0)" style="transform: none;">
    <g>
      <path id="p1DJgnQHds" d="M8025 12780 c-589 -35 -1134 -108 -1510 -201 -241 -60 -282 -71 -410 -111 -490 -154 -842 -353 -1027 -578 -90 -111 -128 -210 -128 -339 0 -122 48 -221 180 -375 86 -99 339 -263 518 -335 45 -18 82 -36 82 -40 0 -4 25 -15 55 -25 30 -9 55 -21 55 -25 0 -4 -24 -30 -54 -57 -92 -84 -243 -252 -330 -368 -115 -151 -202 -292 -295 -476 -94 -188 -142 -309 -234 -590 -64 -195 -71 -223 -71 -300 -1 -72 3 -94 25 -140 67 -142 196 -209 404 -210 70 0 277 -32 386 -60 42 -11 224 -67 405 -126 181 -58 383 -123 449 -144 66 -21 370 -120 675 -219 305 -98 661 -213 790 -255 379 -121 515 -167 521 -174 4 -4 -6 -45 -21 -92 -16 -47 -56 -170 -89 -275 -34 -104 -82 -251 -106 -325 -179 -550 -456 -1416 -470 -1465 -22 -82 -31 -338 -16 -446 41 -287 220 -587 447 -751 151 -108 306 -178 474 -214 116 -25 343 -25 458 0 294 63 533 215 715 453 26 34 47 66 47 72 0 6 5 11 10 11 28 0 4 19 -42 33 -51 16 -51 16 -13 12 38 -4 39 -3 13 8 -16 6 -28 14 -28 18 0 4 -38 20 -85 35 -73 23 -85 30 -85 49 0 25 -17 35 -62 35 -46 0 -88 48 -88 99 0 34 -3 41 -20 41 -38 0 -25 72 66 356 48 148 97 292 109 320 41 92 102 145 200 174 37 11 52 8 185 -35 160 -51 200 -66 200 -77 0 -4 23 -10 50 -14 30 -4 50 -12 50 -19 0 -15 51 -35 91 -35 51 0 31 24 -51 63 -44 20 -85 37 -90 37 -6 0 -10 2 -10 5 0 3 32 103 71 223 39 119 91 280 115 357 25 77 87 271 139 430 316 978 325 1010 367 1280 26 168 36 552 19 721 -14 135 -53 372 -76 454 -21 78 -20 88 8 63 37 -33 42 -33 44 3 2 27 -1 34 -16 34 -14 0 -23 17 -41 78 -42 144 -122 347 -201 509 -43 89 -79 173 -79 186 0 49 -20 87 -46 87 -18 0 -31 11 -52 46 -15 26 -64 95 -109 155 -54 70 -83 117 -83 133 0 21 -5 26 -25 26 -14 0 -25 3 -25 8 0 4 -36 45 -79 92 -64 68 -75 86 -60 88 14 3 19 12 19 38 0 31 -2 34 -30 34 -34 0 -34 1 -18 49 59 183 170 289 345 330 72 18 151 5 234 -36 123 -61 186 -136 298 -351 8 -15 18 -28 23 -30 4 -2 8 -19 8 -38 0 -32 2 -34 35 -34 l36 0 -26 37 c-14 21 -25 42 -25 48 0 5 42 26 93 45 369 138 691 373 795 581 71 142 74 265 9 409 -153 344 -754 655 -1632 844 -379 82 -662 121 -1170 162 -222 18 -979 27 -1190 14z m1295 -691 c81 -36 142 -82 197 -148 60 -74 68 -95 128 -356 20 -88 48 -205 62 -260 30 -118 79 -345 94 -429 5 -33 12 -62 13 -65 2 -3 37 -145 76 -316 87 -369 92 -427 47 -542 -32 -81 -106 -175 -107 -135 0 18 -5 22 -35 22 -33 0 -35 -2 -35 -34 0 -25 5 -35 17 -38 14 -3 11 -8 -15 -27 -48 -33 -159 -71 -213 -71 -63 0 -163 32 -224 72 -48 32 -50 34 -47 76 2 25 -1 42 -7 42 -6 0 -11 9 -11 21 0 19 -5 21 -41 17 -41 -4 -42 -3 -60 38 -11 23 -42 140 -70 260 -53 232 -75 325 -164 707 -30 131 -69 300 -86 375 -16 75 -41 184 -56 242 -54 221 -6 364 164 491 29 22 57 39 63 39 6 0 21 7 34 15 58 38 194 40 276 4z m-935 -6648 c99 -92 179 -139 282 -166 64 -17 260 -20 311 -6 85 25 193 -71 177 -156 -24 -130 -163 -296 -305 -365 -41 -20 -103 -42 -138 -49 -252 -48 -527 128 -613 393 -70 218 26 467 169 440 13 -3 65 -44 117 -91z"></path>
      <path id="p3EXqAXPF" d="M11292 10349 c3 -42 5 -44 37 -47 l33 -3 -23 42 c-34 60 -51 63 -47 8z"></path>
      <path id="pf0u1T0Kp" d="M11540 9405 c0 -24 5 -35 15 -35 8 0 15 -9 15 -20 0 -11 5 -20 10 -20 15 0 52 64 40 68 -6 2 -10 12 -10 23 0 15 -7 19 -35 19 -33 0 -35 -2 -35 -35z"></path>
      <path id="pLJwBCcNw" d="M10730 5368 c10 -24 22 -60 25 -80 4 -21 11 -38 15 -38 15 0 -30 143 -49 154 -6 4 -2 -13 9 -36z"></path>
      <path id="p1KzbqHRS" d="M10572 4767 c-29 -30 -45 -87 -24 -87 10 0 112 103 112 113 0 4 -13 7 -28 7 -19 0 -39 -11 -60 -33z"></path>
      <path id="psbjLfc4c" d="M10423 4663 c-7 -2 -13 -18 -13 -34 l0 -29 45 22 c53 26 59 48 13 47 -18 0 -39 -3 -45 -6z"></path>
      <path id="p19R1LbKyS" d="M10052 4603 c4 -19 54 -31 141 -32 39 -1 47 2 47 18 0 15 -11 19 -61 25 -106 11 -131 8 -127 -11z"></path>
    </g>
    </g>
      <g id="l1mC9BJTAS5CLEIQ92Dg8d6" fill="rgb(255,255,255)" style="transform: none;">
        <g>
        <path id="pPDZs9cx3" d="M8178 12783 c12 -2 30 -2 40 0 9 3 -1 5 -23 4 -22 0 -30 -2 -17 -4z"></path>
        <path fill="#fe8046" id="pNDKjwWFy" d="M9081 12140 c-24 -5 -54 -16 -67 -25 -13 -8 -28 -15 -34 -15 -15 0 -109 -71 -147 -111 -17 -19 -45 -61 -63 -95 -28 -54 -32 -73 -37 -170 -5 -95 -2 -122 20 -214 14 -58 40 -167 56 -242 17 -75 56 -244 86 -375 96 -411 113 -482 165 -708 52 -229 98 -352 127 -341 8 4 11 1 7 -5 -9 -15 62 -85 121 -119 238 -135 556 -29 649 218 41 108 48 153 35 235 -10 66 -147 675 -155 688 -1 3 -8 32 -13 65 -15 84 -64 311 -94 429 -14 55 -42 172 -62 260 -60 261 -68 282 -128 356 -56 67 -116 112 -200 149 -55 25 -195 35 -266 20z"></path>
        <path id="pDYgPuzrU" d="M5037 11838 c-13 -18 -28 -40 -32 -48 -18 -32 24 11 44 46 26 43 19 44 -12 2z"></path>
        <path id="pK3dZfJmn" d="M11950 11268 c-15 -21 -17 -28 -6 -19 16 13 41 51 33 51 -2 0 -14 -15 -27 -32z"></path>
        <path id="pz6Pual4o" d="M11875 11182 l-38 -47 44 42 c23 23 41 45 38 47 -3 3 -22 -16 -44 -42z"></path>
        <path fill="#fe8046" id="pJfG8A9u1" d="M10490 11156 c-204 -60 -326 -212 -344 -426 l-4 -55 66 -71 c230 -242 403 -491 545 -784 70 -144 151 -347 187 -470 25 -85 46 -124 62 -114 7 4 8 3 4 -4 -24 -39 226 -90 314 -64 30 9 21 10 -65 12 -107 1 -216 19 -222 36 -2 7 16 7 54 2 32 -5 117 -11 190 -14 129 -5 133 -4 189 23 54 26 143 114 136 134 -1 5 2 9 7 9 18 0 61 106 71 177 18 116 3 170 -103 370 -51 95 -96 173 -101 173 -14 0 2 -71 20 -91 10 -11 14 -22 10 -26 -10 -10 -43 34 -57 77 -7 19 -20 52 -31 73 -27 54 -17 70 12 19 20 -35 40 -54 40 -38 0 12 -126 223 -139 233 -9 6 -13 15 -9 19 4 4 -1 19 -11 33 -10 14 -46 78 -81 141 -74 137 -84 152 -94 142 -4 -4 -6 -2 -4 3 4 12 -31 105 -47 125 -6 8 -34 55 -61 104 -59 106 -125 170 -228 221 -64 32 -83 37 -167 40 -61 3 -110 0 -139 -9z"></path>
        <path fill="#fe8046" id="p1EedBbx6x" d="M9895 5810 c-11 -5 -32 -11 -46 -14 -44 -9 -116 -82 -148 -149 -16 -34 -68 -183 -116 -332 -75 -234 -87 -279 -87 -340 0 -85 17 -127 74 -187 61 -63 66 -66 180 -104 109 -37 188 -50 188 -31 0 6 12 -1 28 -16 37 -35 90 -56 130 -50 17 3 32 1 32 -3 0 -14 199 -10 247 4 23 7 49 19 56 27 8 8 17 11 21 8 3 -4 6 -1 6 5 0 7 3 11 8 10 15 -4 50 13 56 27 3 8 10 15 15 15 17 0 119 108 158 168 26 38 38 68 39 93 0 20 7 47 16 60 26 40 30 65 13 79 -22 19 -20 71 4 77 20 5 21 31 4 103 l-6 25 -7 -25 -7 -25 -8 30 c-4 17 -13 39 -19 50 -7 11 -20 47 -31 80 -31 100 -43 121 -105 179 -56 51 -71 61 -92 57 -5 0 -8 3 -8 9 0 5 -6 7 -13 4 -7 -2 -26 6 -42 20 -15 13 -34 22 -42 19 -7 -3 -13 -1 -13 5 0 6 -9 8 -20 5 -14 -4 -20 -1 -18 8 2 7 -4 14 -12 14 -8 1 -22 4 -30 8 -8 3 -79 27 -158 52 -139 44 -205 53 -247 35z"></path>
        <path id="p18y3G9esb" d="M8186 5560 c-89 -27 -141 -144 -141 -320 0 -84 5 -120 24 -178 57 -173 198 -316 370 -375 72 -25 221 -33 303 -18 160 31 339 170 408 316 40 86 51 175 26 223 -41 79 -120 113 -216 94 -202 -42 -376 12 -545 169 -107 99 -145 114 -229 89z"></path>
    </g>
  </g>
</svg>